<mxfile host="app.diagrams.net" modified="2023-11-05T18:11:34.372Z" agent="Mozilla/5.0 (Windows NT 10.0; Win64; x64) AppleWebKit/537.36 (KHTML, like Gecko) Chrome/119.0.0.0 Safari/537.36" etag="6KYWiCTFL_J_1afmSvtQ" version="22.0.8" type="device">
  <diagram name="Page-1" id="IwzdK-C620XN2FUEg_l0">
    <mxGraphModel dx="1829" dy="2480" grid="0" gridSize="10" guides="1" tooltips="1" connect="1" arrows="1" fold="1" page="0" pageScale="1" pageWidth="827" pageHeight="1169" math="0" shadow="0">
      <root>
        <mxCell id="0" />
        <mxCell id="1" parent="0" />
        <mxCell id="5Yya15sDYefnaOWw6tK0-105" value="" style="shape=folder;fontStyle=1;spacingTop=10;tabWidth=40;tabHeight=14;tabPosition=left;html=1;whiteSpace=wrap;" parent="1" vertex="1">
          <mxGeometry x="167" y="-602" width="694" height="843" as="geometry" />
        </mxCell>
        <mxCell id="5Yya15sDYefnaOWw6tK0-22" value="" style="shape=folder;fontStyle=1;spacingTop=10;tabWidth=40;tabHeight=14;tabPosition=left;html=1;whiteSpace=wrap;" parent="1" vertex="1">
          <mxGeometry x="163" y="305" width="690" height="504" as="geometry" />
        </mxCell>
        <mxCell id="5Yya15sDYefnaOWw6tK0-1" value="Pracownik" style="shape=umlActor;verticalLabelPosition=bottom;verticalAlign=top;html=1;outlineConnect=0;" parent="1" vertex="1">
          <mxGeometry x="45" y="-1225" width="60" height="120" as="geometry" />
        </mxCell>
        <mxCell id="5Yya15sDYefnaOWw6tK0-5" value="" style="shape=folder;fontStyle=1;spacingTop=10;tabWidth=40;tabHeight=14;tabPosition=left;html=1;whiteSpace=wrap;" parent="1" vertex="1">
          <mxGeometry x="167" y="-872" width="445" height="230" as="geometry" />
        </mxCell>
        <mxCell id="5Yya15sDYefnaOWw6tK0-7" value="&lt;font size=&quot;1&quot; style=&quot;&quot;&gt;&lt;b style=&quot;font-size: 19px;&quot;&gt;Logowanie&lt;/b&gt;&lt;/font&gt;" style="text;html=1;strokeColor=none;fillColor=none;align=center;verticalAlign=middle;whiteSpace=wrap;rounded=0;" parent="1" vertex="1">
          <mxGeometry x="274.5" y="-862" width="230" height="30" as="geometry" />
        </mxCell>
        <mxCell id="5Yya15sDYefnaOWw6tK0-11" value="Podanie danych logowania" style="ellipse;whiteSpace=wrap;html=1;" parent="1" vertex="1">
          <mxGeometry x="247" y="-822" width="100" height="53" as="geometry" />
        </mxCell>
        <mxCell id="5Yya15sDYefnaOWw6tK0-12" value="Weryfikacja danych logowania" style="ellipse;whiteSpace=wrap;html=1;" parent="1" vertex="1">
          <mxGeometry x="247" y="-729" width="95" height="60" as="geometry" />
        </mxCell>
        <mxCell id="5Yya15sDYefnaOWw6tK0-13" value="&amp;lt;&amp;lt;include&amp;gt;&amp;gt;" style="endArrow=open;endSize=12;dashed=1;html=1;rounded=0;exitX=0.5;exitY=1;exitDx=0;exitDy=0;" parent="1" source="5Yya15sDYefnaOWw6tK0-11" target="5Yya15sDYefnaOWw6tK0-12" edge="1">
          <mxGeometry x="-0.2" y="35" width="160" relative="1" as="geometry">
            <mxPoint x="252" y="-752" as="sourcePoint" />
            <mxPoint x="412" y="-752" as="targetPoint" />
            <mxPoint as="offset" />
          </mxGeometry>
        </mxCell>
        <mxCell id="5Yya15sDYefnaOWw6tK0-15" value="" style="shape=folder;fontStyle=1;spacingTop=10;tabWidth=40;tabHeight=14;tabPosition=left;html=1;whiteSpace=wrap;" parent="1" vertex="1">
          <mxGeometry x="167" y="-1297" width="404" height="270" as="geometry" />
        </mxCell>
        <mxCell id="5Yya15sDYefnaOWw6tK0-16" value="&lt;font size=&quot;1&quot; style=&quot;&quot;&gt;&lt;b style=&quot;font-size: 19px;&quot;&gt;Założenie konta pracowniczego&lt;/b&gt;&lt;/font&gt;" style="text;html=1;strokeColor=none;fillColor=none;align=center;verticalAlign=middle;whiteSpace=wrap;rounded=0;" parent="1" vertex="1">
          <mxGeometry x="139" y="-1272" width="460.5" height="30" as="geometry" />
        </mxCell>
        <mxCell id="5Yya15sDYefnaOWw6tK0-17" value="Podanie parametrów sprzętu" style="ellipse;whiteSpace=wrap;html=1;" parent="1" vertex="1">
          <mxGeometry x="594" y="482" width="157" height="90" as="geometry" />
        </mxCell>
        <mxCell id="5Yya15sDYefnaOWw6tK0-18" value="Modyfikacja paramtetrów sprzętu" style="ellipse;whiteSpace=wrap;html=1;" parent="1" vertex="1">
          <mxGeometry x="325" y="688" width="137" height="70" as="geometry" />
        </mxCell>
        <mxCell id="5Yya15sDYefnaOWw6tK0-23" value="Modyfikacja parametrów loterii" style="ellipse;whiteSpace=wrap;html=1;" parent="1" vertex="1">
          <mxGeometry x="479" y="-106.99999999999997" width="120" height="80" as="geometry" />
        </mxCell>
        <mxCell id="5Yya15sDYefnaOWw6tK0-27" value="Losowanie zwycięzcy loterii" style="ellipse;whiteSpace=wrap;html=1;" parent="1" vertex="1">
          <mxGeometry x="464" y="23" width="120" height="80" as="geometry" />
        </mxCell>
        <mxCell id="5Yya15sDYefnaOWw6tK0-29" value="Podanie loginu, hasła i emaila firmowego" style="ellipse;whiteSpace=wrap;html=1;" parent="1" vertex="1">
          <mxGeometry x="191" y="-1231" width="110" height="65" as="geometry" />
        </mxCell>
        <mxCell id="5Yya15sDYefnaOWw6tK0-30" value="weryfikacja maila firmowego" style="ellipse;whiteSpace=wrap;html=1;" parent="1" vertex="1">
          <mxGeometry x="184" y="-1123.5" width="120" height="80" as="geometry" />
        </mxCell>
        <mxCell id="5Yya15sDYefnaOWw6tK0-31" value="Założenie konta" style="ellipse;whiteSpace=wrap;html=1;" parent="1" vertex="1">
          <mxGeometry x="424" y="-1123.5" width="120" height="80" as="geometry" />
        </mxCell>
        <mxCell id="5Yya15sDYefnaOWw6tK0-32" value="&amp;lt;&amp;lt;include&amp;gt;&amp;gt;" style="endArrow=open;endSize=12;dashed=1;html=1;rounded=0;exitX=0.5;exitY=1;exitDx=0;exitDy=0;" parent="1" source="5Yya15sDYefnaOWw6tK0-29" target="5Yya15sDYefnaOWw6tK0-30" edge="1">
          <mxGeometry x="-0.2" y="35" width="160" relative="1" as="geometry">
            <mxPoint x="-79" y="-1163.5" as="sourcePoint" />
            <mxPoint x="-78" y="-1123.5" as="targetPoint" />
            <mxPoint as="offset" />
          </mxGeometry>
        </mxCell>
        <mxCell id="5Yya15sDYefnaOWw6tK0-33" value="&amp;lt;&amp;lt;include&amp;gt;&amp;gt;" style="endArrow=open;endSize=12;dashed=1;html=1;rounded=0;exitX=1;exitY=0.5;exitDx=0;exitDy=0;" parent="1" source="5Yya15sDYefnaOWw6tK0-30" target="5Yya15sDYefnaOWw6tK0-31" edge="1">
          <mxGeometry x="-0.2083" y="10" width="160" relative="1" as="geometry">
            <mxPoint x="256" y="-1155.5" as="sourcePoint" />
            <mxPoint x="256" y="-1113.5" as="targetPoint" />
            <mxPoint as="offset" />
          </mxGeometry>
        </mxCell>
        <mxCell id="5Yya15sDYefnaOWw6tK0-34" value="&amp;lt;&amp;lt;include&amp;gt;&amp;gt;" style="endArrow=open;endSize=12;dashed=1;html=1;rounded=0;exitX=1;exitY=0.5;exitDx=0;exitDy=0;" parent="1" source="5Yya15sDYefnaOWw6tK0-69" target="5Yya15sDYefnaOWw6tK0-17" edge="1">
          <mxGeometry x="-0.0327" y="18" width="160" relative="1" as="geometry">
            <mxPoint x="422" y="40" as="sourcePoint" />
            <mxPoint x="423" y="80" as="targetPoint" />
            <mxPoint as="offset" />
          </mxGeometry>
        </mxCell>
        <mxCell id="5Yya15sDYefnaOWw6tK0-35" value="&amp;lt;&amp;lt;extends&amp;gt;&amp;gt;" style="endArrow=open;endSize=12;dashed=1;html=1;rounded=0;entryX=1;entryY=1;entryDx=0;entryDy=0;" parent="1" source="5Yya15sDYefnaOWw6tK0-18" target="5Yya15sDYefnaOWw6tK0-79" edge="1">
          <mxGeometry x="-0.1818" y="5" width="160" relative="1" as="geometry">
            <mxPoint x="547" y="416.25" as="sourcePoint" />
            <mxPoint x="547" y="476.25" as="targetPoint" />
            <mxPoint as="offset" />
          </mxGeometry>
        </mxCell>
        <mxCell id="5Yya15sDYefnaOWw6tK0-41" value="Przeglądanie wszystkich loterii" style="ellipse;whiteSpace=wrap;html=1;" parent="1" vertex="1">
          <mxGeometry x="177" y="-260" width="205" height="80" as="geometry" />
        </mxCell>
        <mxCell id="5Yya15sDYefnaOWw6tK0-42" value="&amp;lt;&amp;lt;extends&amp;gt;&amp;gt;" style="endArrow=open;endSize=12;dashed=1;html=1;rounded=0;entryX=1;entryY=0;entryDx=0;entryDy=0;exitX=0;exitY=0.5;exitDx=0;exitDy=0;" parent="1" source="5Yya15sDYefnaOWw6tK0-78" target="5Yya15sDYefnaOWw6tK0-41" edge="1">
          <mxGeometry x="-0.1491" y="-10" width="160" relative="1" as="geometry">
            <mxPoint x="610.75" y="-168" as="sourcePoint" />
            <mxPoint x="443.81446180908006" y="18.85367643889458" as="targetPoint" />
            <mxPoint as="offset" />
          </mxGeometry>
        </mxCell>
        <mxCell id="5Yya15sDYefnaOWw6tK0-51" value="Uruchomienie losowania" style="ellipse;whiteSpace=wrap;html=1;" parent="1" vertex="1">
          <mxGeometry x="216.5" y="28" width="120" height="70" as="geometry" />
        </mxCell>
        <mxCell id="5Yya15sDYefnaOWw6tK0-52" value="&amp;lt;&amp;lt;extends&amp;gt;&amp;gt;" style="endArrow=open;endSize=12;dashed=1;html=1;rounded=0;" parent="1" source="5Yya15sDYefnaOWw6tK0-51" target="5Yya15sDYefnaOWw6tK0-81" edge="1">
          <mxGeometry x="-0.1784" y="5" width="160" relative="1" as="geometry">
            <mxPoint x="415.75" y="-79.55999999999995" as="sourcePoint" />
            <mxPoint x="565.75" y="-79.55999999999995" as="targetPoint" />
            <mxPoint as="offset" />
          </mxGeometry>
        </mxCell>
        <mxCell id="5Yya15sDYefnaOWw6tK0-60" value="&amp;lt;&amp;lt;include&amp;gt;&amp;gt;" style="endArrow=open;endSize=12;dashed=1;html=1;rounded=0;exitX=1;exitY=0.5;exitDx=0;exitDy=0;" parent="1" source="5Yya15sDYefnaOWw6tK0-51" target="5Yya15sDYefnaOWw6tK0-27" edge="1">
          <mxGeometry x="0.0275" y="20" width="160" relative="1" as="geometry">
            <mxPoint x="472.75" y="30.440000000000055" as="sourcePoint" />
            <mxPoint x="475.75" y="-51.559999999999945" as="targetPoint" />
            <mxPoint as="offset" />
          </mxGeometry>
        </mxCell>
        <mxCell id="5Yya15sDYefnaOWw6tK0-62" value="Logowanie do systemu z odpowiednimi uprawnieniami" style="ellipse;whiteSpace=wrap;html=1;" parent="1" vertex="1">
          <mxGeometry x="422" y="-737" width="177" height="80" as="geometry" />
        </mxCell>
        <mxCell id="5Yya15sDYefnaOWw6tK0-63" value="&amp;lt;&amp;lt;include&amp;gt;&amp;gt;" style="endArrow=open;endSize=12;dashed=1;html=1;rounded=0;exitX=1;exitY=0.5;exitDx=0;exitDy=0;" parent="1" source="5Yya15sDYefnaOWw6tK0-12" target="5Yya15sDYefnaOWw6tK0-62" edge="1">
          <mxGeometry x="-0.2283" y="9" width="160" relative="1" as="geometry">
            <mxPoint x="297" y="-762" as="sourcePoint" />
            <mxPoint x="298" y="-722" as="targetPoint" />
            <mxPoint as="offset" />
          </mxGeometry>
        </mxCell>
        <mxCell id="5Yya15sDYefnaOWw6tK0-66" value="Przeglądanie wszystkich sprzętów" style="ellipse;whiteSpace=wrap;html=1;" parent="1" vertex="1">
          <mxGeometry x="255" y="365" width="120" height="80" as="geometry" />
        </mxCell>
        <mxCell id="5Yya15sDYefnaOWw6tK0-67" value="Usunięcie sprzętu" style="ellipse;whiteSpace=wrap;html=1;" parent="1" vertex="1">
          <mxGeometry x="179" y="686" width="120" height="80" as="geometry" />
        </mxCell>
        <mxCell id="5Yya15sDYefnaOWw6tK0-68" value="&amp;lt;&amp;lt;extends&amp;gt;&amp;gt;" style="endArrow=open;endSize=12;dashed=1;html=1;rounded=0;exitX=0.5;exitY=0;exitDx=0;exitDy=0;entryX=0;entryY=1;entryDx=0;entryDy=0;" parent="1" source="5Yya15sDYefnaOWw6tK0-67" target="5Yya15sDYefnaOWw6tK0-79" edge="1">
          <mxGeometry x="-0.1818" y="5" width="160" relative="1" as="geometry">
            <mxPoint x="234" y="671" as="sourcePoint" />
            <mxPoint x="302" y="595" as="targetPoint" />
            <mxPoint as="offset" />
          </mxGeometry>
        </mxCell>
        <mxCell id="5Yya15sDYefnaOWw6tK0-69" value="Dodanie nowego sprzętu" style="ellipse;whiteSpace=wrap;html=1;" parent="1" vertex="1">
          <mxGeometry x="392" y="492" width="120" height="80" as="geometry" />
        </mxCell>
        <mxCell id="5Yya15sDYefnaOWw6tK0-70" value="&amp;lt;&amp;lt;extends&amp;gt;&amp;gt;" style="endArrow=open;endSize=12;dashed=1;html=1;rounded=0;entryX=1;entryY=1;entryDx=0;entryDy=0;exitX=0;exitY=0;exitDx=0;exitDy=0;" parent="1" source="5Yya15sDYefnaOWw6tK0-69" target="5Yya15sDYefnaOWw6tK0-66" edge="1">
          <mxGeometry x="-0.1818" y="5" width="160" relative="1" as="geometry">
            <mxPoint x="364" y="675" as="sourcePoint" />
            <mxPoint x="357" y="605" as="targetPoint" />
            <mxPoint as="offset" />
          </mxGeometry>
        </mxCell>
        <mxCell id="5Yya15sDYefnaOWw6tK0-71" value="&amp;lt;&amp;lt;include&amp;gt;&amp;gt;" style="endArrow=open;endSize=12;dashed=1;html=1;rounded=0;exitX=1;exitY=0.5;exitDx=0;exitDy=0;" parent="1" source="5Yya15sDYefnaOWw6tK0-18" target="5Yya15sDYefnaOWw6tK0-17" edge="1">
          <mxGeometry x="-0.0265" y="5" width="160" relative="1" as="geometry">
            <mxPoint x="515" y="745" as="sourcePoint" />
            <mxPoint x="382" y="881" as="targetPoint" />
            <mxPoint as="offset" />
          </mxGeometry>
        </mxCell>
        <mxCell id="5Yya15sDYefnaOWw6tK0-72" value="Filtrowanie sprzętów" style="ellipse;whiteSpace=wrap;html=1;" parent="1" vertex="1">
          <mxGeometry x="556" y="365" width="120" height="80" as="geometry" />
        </mxCell>
        <mxCell id="5Yya15sDYefnaOWw6tK0-73" value="&amp;lt;&amp;lt;extends&amp;gt;&amp;gt;" style="endArrow=open;endSize=12;dashed=1;html=1;rounded=0;entryX=1;entryY=0.5;entryDx=0;entryDy=0;" parent="1" source="5Yya15sDYefnaOWw6tK0-72" target="5Yya15sDYefnaOWw6tK0-66" edge="1">
          <mxGeometry x="-0.1381" y="-13" width="160" relative="1" as="geometry">
            <mxPoint x="473" y="677" as="sourcePoint" />
            <mxPoint x="399" y="593" as="targetPoint" />
            <mxPoint as="offset" />
          </mxGeometry>
        </mxCell>
        <mxCell id="5Yya15sDYefnaOWw6tK0-74" value="Pomoc systemu w uzupełnianiu parametrów sprzętu" style="ellipse;whiteSpace=wrap;html=1;" parent="1" vertex="1">
          <mxGeometry x="512" y="683" width="135" height="80" as="geometry" />
        </mxCell>
        <mxCell id="5Yya15sDYefnaOWw6tK0-75" value="&amp;lt;&amp;lt;include&amp;gt;&amp;gt;" style="endArrow=open;endSize=12;dashed=1;html=1;rounded=0;exitX=0.5;exitY=1;exitDx=0;exitDy=0;" parent="1" source="5Yya15sDYefnaOWw6tK0-17" target="5Yya15sDYefnaOWw6tK0-74" edge="1">
          <mxGeometry x="0.1111" y="15" width="160" relative="1" as="geometry">
            <mxPoint x="515" y="745" as="sourcePoint" />
            <mxPoint x="359" y="882" as="targetPoint" />
            <mxPoint x="1" as="offset" />
          </mxGeometry>
        </mxCell>
        <mxCell id="5Yya15sDYefnaOWw6tK0-76" value="Dodanie sprzętu do bazy danych" style="ellipse;whiteSpace=wrap;html=1;" parent="1" vertex="1">
          <mxGeometry x="720" y="683" width="120" height="80" as="geometry" />
        </mxCell>
        <mxCell id="5Yya15sDYefnaOWw6tK0-77" value="&amp;lt;&amp;lt;include&amp;gt;&amp;gt;" style="endArrow=open;endSize=12;dashed=1;html=1;rounded=0;exitX=1;exitY=0.5;exitDx=0;exitDy=0;" parent="1" source="5Yya15sDYefnaOWw6tK0-74" target="5Yya15sDYefnaOWw6tK0-76" edge="1">
          <mxGeometry x="0.1111" y="15" width="160" relative="1" as="geometry">
            <mxPoint x="400" y="1035" as="sourcePoint" />
            <mxPoint x="490" y="1035" as="targetPoint" />
            <mxPoint x="1" as="offset" />
          </mxGeometry>
        </mxCell>
        <mxCell id="5Yya15sDYefnaOWw6tK0-78" value="Filtrowanie loterii" style="ellipse;whiteSpace=wrap;html=1;" parent="1" vertex="1">
          <mxGeometry x="504.5" y="-362" width="120" height="80" as="geometry" />
        </mxCell>
        <mxCell id="5Yya15sDYefnaOWw6tK0-79" value="Przeglądanie wybranego sprzętu" style="ellipse;whiteSpace=wrap;html=1;" parent="1" vertex="1">
          <mxGeometry x="238" y="505" width="120" height="80" as="geometry" />
        </mxCell>
        <mxCell id="5Yya15sDYefnaOWw6tK0-80" value="&amp;lt;&amp;lt;extends&amp;gt;&amp;gt;" style="endArrow=open;endSize=12;dashed=1;html=1;rounded=0;entryX=0.5;entryY=1;entryDx=0;entryDy=0;" parent="1" source="5Yya15sDYefnaOWw6tK0-79" target="5Yya15sDYefnaOWw6tK0-66" edge="1">
          <mxGeometry x="-0.1818" y="5" width="160" relative="1" as="geometry">
            <mxPoint x="529" y="425" as="sourcePoint" />
            <mxPoint x="345" y="425" as="targetPoint" />
            <mxPoint as="offset" />
          </mxGeometry>
        </mxCell>
        <mxCell id="5Yya15sDYefnaOWw6tK0-81" value="Przeglądanie wybranej loterii" style="ellipse;whiteSpace=wrap;html=1;" parent="1" vertex="1">
          <mxGeometry x="216.5" y="-102" width="120" height="80" as="geometry" />
        </mxCell>
        <mxCell id="5Yya15sDYefnaOWw6tK0-82" value="&amp;lt;&amp;lt;extends&amp;gt;&amp;gt;" style="endArrow=open;endSize=12;dashed=1;html=1;rounded=0;exitX=0.5;exitY=0;exitDx=0;exitDy=0;" parent="1" source="5Yya15sDYefnaOWw6tK0-81" target="5Yya15sDYefnaOWw6tK0-41" edge="1">
          <mxGeometry x="-0.1784" y="5" width="160" relative="1" as="geometry">
            <mxPoint x="865.75" y="-150.27999999999997" as="sourcePoint" />
            <mxPoint x="600.7715549283789" y="-121.99572875253875" as="targetPoint" />
            <mxPoint as="offset" />
          </mxGeometry>
        </mxCell>
        <mxCell id="5Yya15sDYefnaOWw6tK0-84" value="&amp;lt;&amp;lt;extends&amp;gt;&amp;gt;" style="endArrow=open;endSize=12;dashed=1;html=1;rounded=0;entryX=1;entryY=0.5;entryDx=0;entryDy=0;" parent="1" source="5Yya15sDYefnaOWw6tK0-23" target="5Yya15sDYefnaOWw6tK0-81" edge="1">
          <mxGeometry x="-0.1608" y="-9" width="160" relative="1" as="geometry">
            <mxPoint x="514.75" y="123.72000000000003" as="sourcePoint" />
            <mxPoint x="616.75" y="13.720000000000027" as="targetPoint" />
            <mxPoint as="offset" />
            <Array as="points" />
          </mxGeometry>
        </mxCell>
        <mxCell id="5Yya15sDYefnaOWw6tK0-85" value="Podanie parametrów loterii" style="ellipse;whiteSpace=wrap;html=1;" parent="1" vertex="1">
          <mxGeometry x="724" y="-256" width="120" height="80" as="geometry" />
        </mxCell>
        <mxCell id="5Yya15sDYefnaOWw6tK0-86" value="Dodanie nowej loterii" style="ellipse;whiteSpace=wrap;html=1;" parent="1" vertex="1">
          <mxGeometry x="514" y="-256" width="120" height="80" as="geometry" />
        </mxCell>
        <mxCell id="5Yya15sDYefnaOWw6tK0-87" value="&amp;lt;&amp;lt;extends&amp;gt;&amp;gt;" style="endArrow=open;endSize=12;dashed=1;html=1;rounded=0;entryX=1;entryY=0.5;entryDx=0;entryDy=0;" parent="1" source="5Yya15sDYefnaOWw6tK0-86" target="5Yya15sDYefnaOWw6tK0-41" edge="1">
          <mxGeometry x="-0.3066" y="-12" width="160" relative="1" as="geometry">
            <mxPoint x="575.75" y="-60.27999999999997" as="sourcePoint" />
            <mxPoint x="745.7284450716206" y="-121.99572875253875" as="targetPoint" />
            <mxPoint x="-1" as="offset" />
          </mxGeometry>
        </mxCell>
        <mxCell id="5Yya15sDYefnaOWw6tK0-88" value="&amp;lt;&amp;lt;include&amp;gt;&amp;gt;" style="endArrow=open;endSize=12;dashed=1;html=1;rounded=0;exitX=1;exitY=0.5;exitDx=0;exitDy=0;" parent="1" source="5Yya15sDYefnaOWw6tK0-86" target="5Yya15sDYefnaOWw6tK0-85" edge="1">
          <mxGeometry x="-0.0603" y="18" width="160" relative="1" as="geometry">
            <mxPoint x="259.75" y="73.72000000000003" as="sourcePoint" />
            <mxPoint x="110.75" y="312.72" as="targetPoint" />
            <mxPoint as="offset" />
          </mxGeometry>
        </mxCell>
        <mxCell id="5Yya15sDYefnaOWw6tK0-89" value="&amp;lt;&amp;lt;include&amp;gt;&amp;gt;" style="endArrow=open;endSize=12;dashed=1;html=1;rounded=0;exitX=1;exitY=0.5;exitDx=0;exitDy=0;" parent="1" source="5Yya15sDYefnaOWw6tK0-23" target="5Yya15sDYefnaOWw6tK0-85" edge="1">
          <mxGeometry x="0.2123" y="26" width="160" relative="1" as="geometry">
            <mxPoint x="852.75" y="17.720000000000027" as="sourcePoint" />
            <mxPoint x="900.75" y="99.72000000000003" as="targetPoint" />
            <mxPoint as="offset" />
          </mxGeometry>
        </mxCell>
        <mxCell id="5Yya15sDYefnaOWw6tK0-90" value="Dodawanie dostępnych sprzętów do loterii" style="ellipse;whiteSpace=wrap;html=1;" parent="1" vertex="1">
          <mxGeometry x="716.5" y="-102" width="120" height="80" as="geometry" />
        </mxCell>
        <mxCell id="5Yya15sDYefnaOWw6tK0-91" value="&amp;lt;&amp;lt;extends&amp;gt;&amp;gt;" style="endArrow=open;endSize=12;dashed=1;html=1;rounded=0;entryX=0.5;entryY=1;entryDx=0;entryDy=0;exitX=0.5;exitY=0;exitDx=0;exitDy=0;" parent="1" source="5Yya15sDYefnaOWw6tK0-90" target="5Yya15sDYefnaOWw6tK0-85" edge="1">
          <mxGeometry x="-0.027" y="-10" width="160" relative="1" as="geometry">
            <mxPoint x="915.75" y="219.7199999999998" as="sourcePoint" />
            <mxPoint x="596.75" y="16.720000000000027" as="targetPoint" />
            <mxPoint as="offset" />
            <Array as="points" />
          </mxGeometry>
        </mxCell>
        <mxCell id="5Yya15sDYefnaOWw6tK0-92" value="Przeglądanie dostępnych loterii" style="ellipse;whiteSpace=wrap;html=1;" parent="1" vertex="1">
          <mxGeometry x="231.5" y="-522" width="120" height="80" as="geometry" />
        </mxCell>
        <mxCell id="5Yya15sDYefnaOWw6tK0-93" value="Filtrowanie loterii" style="ellipse;whiteSpace=wrap;html=1;" parent="1" vertex="1">
          <mxGeometry x="442" y="-522" width="120" height="80" as="geometry" />
        </mxCell>
        <mxCell id="5Yya15sDYefnaOWw6tK0-94" value="&amp;lt;&amp;lt;extends&amp;gt;&amp;gt;" style="endArrow=open;endSize=12;dashed=1;html=1;rounded=0;entryX=1;entryY=0.5;entryDx=0;entryDy=0;" parent="1" source="5Yya15sDYefnaOWw6tK0-93" target="5Yya15sDYefnaOWw6tK0-92" edge="1">
          <mxGeometry x="-0.027" y="-10" width="160" relative="1" as="geometry">
            <mxPoint x="574.5" y="-572" as="sourcePoint" />
            <mxPoint x="574.5" y="-622" as="targetPoint" />
            <mxPoint as="offset" />
            <Array as="points" />
          </mxGeometry>
        </mxCell>
        <mxCell id="5Yya15sDYefnaOWw6tK0-95" value="zapisanie lub wypisanie się z loterii" style="ellipse;whiteSpace=wrap;html=1;" parent="1" vertex="1">
          <mxGeometry x="229.5" y="-382" width="120" height="80" as="geometry" />
        </mxCell>
        <mxCell id="5Yya15sDYefnaOWw6tK0-96" value="&amp;lt;&amp;lt;extends&amp;gt;&amp;gt;" style="endArrow=open;endSize=12;dashed=1;html=1;rounded=0;entryX=0.5;entryY=1;entryDx=0;entryDy=0;exitX=0.5;exitY=0;exitDx=0;exitDy=0;" parent="1" source="5Yya15sDYefnaOWw6tK0-95" target="5Yya15sDYefnaOWw6tK0-92" edge="1">
          <mxGeometry x="-0.027" y="-10" width="160" relative="1" as="geometry">
            <mxPoint x="289.5" y="-351.99999999999955" as="sourcePoint" />
            <mxPoint x="389.5" y="-392" as="targetPoint" />
            <mxPoint as="offset" />
            <Array as="points" />
          </mxGeometry>
        </mxCell>
        <mxCell id="5Yya15sDYefnaOWw6tK0-98" value="Zatwierdzenie chęci kupna sprzętu" style="ellipse;whiteSpace=wrap;html=1;" parent="1" vertex="1">
          <mxGeometry x="313.5" y="136" width="120" height="80" as="geometry" />
        </mxCell>
        <mxCell id="5Yya15sDYefnaOWw6tK0-99" value="&amp;lt;&amp;lt;extends&amp;gt;&amp;gt;" style="endArrow=open;endSize=12;dashed=1;html=1;rounded=0;" parent="1" source="5Yya15sDYefnaOWw6tK0-98" target="5Yya15sDYefnaOWw6tK0-27" edge="1">
          <mxGeometry x="-0.1784" y="5" width="160" relative="1" as="geometry">
            <mxPoint x="443.75" y="13.440000000000055" as="sourcePoint" />
            <mxPoint x="507.75" y="-91.55999999999995" as="targetPoint" />
            <mxPoint as="offset" />
          </mxGeometry>
        </mxCell>
        <mxCell id="5Yya15sDYefnaOWw6tK0-100" value="Odrzucenie chęci kupna sprzętu" style="ellipse;whiteSpace=wrap;html=1;" parent="1" vertex="1">
          <mxGeometry x="671" y="126" width="120" height="80" as="geometry" />
        </mxCell>
        <mxCell id="5Yya15sDYefnaOWw6tK0-101" value="&amp;lt;&amp;lt;extends&amp;gt;&amp;gt;" style="endArrow=open;endSize=12;dashed=1;html=1;rounded=0;entryX=0.698;entryY=0.979;entryDx=0;entryDy=0;entryPerimeter=0;" parent="1" source="5Yya15sDYefnaOWw6tK0-100" target="5Yya15sDYefnaOWw6tK0-27" edge="1">
          <mxGeometry x="-0.1784" y="5" width="160" relative="1" as="geometry">
            <mxPoint x="350.75" y="235.44000000000005" as="sourcePoint" />
            <mxPoint x="381.75" y="190.44000000000005" as="targetPoint" />
            <mxPoint as="offset" />
          </mxGeometry>
        </mxCell>
        <mxCell id="5Yya15sDYefnaOWw6tK0-102" value="Odrzucenie loterii" style="ellipse;whiteSpace=wrap;html=1;" parent="1" vertex="1">
          <mxGeometry x="705.5" y="25" width="120" height="80" as="geometry" />
        </mxCell>
        <mxCell id="5Yya15sDYefnaOWw6tK0-103" value="&amp;lt;&amp;lt;extends&amp;gt;&amp;gt;" style="endArrow=open;endSize=12;dashed=1;html=1;rounded=0;" parent="1" source="5Yya15sDYefnaOWw6tK0-102" target="5Yya15sDYefnaOWw6tK0-27" edge="1">
          <mxGeometry x="-0.1979" y="-18" width="160" relative="1" as="geometry">
            <mxPoint x="430.75" y="261.44000000000005" as="sourcePoint" />
            <mxPoint x="423.75" y="201.44000000000005" as="targetPoint" />
            <mxPoint as="offset" />
          </mxGeometry>
        </mxCell>
        <mxCell id="5Yya15sDYefnaOWw6tK0-104" value="&lt;font style=&quot;font-size: 21px;&quot;&gt;&lt;b&gt;Sprzęt komputerowy&lt;/b&gt;&lt;/font&gt;" style="text;html=1;strokeColor=none;fillColor=none;align=center;verticalAlign=middle;whiteSpace=wrap;rounded=0;" parent="1" vertex="1">
          <mxGeometry x="423" y="325" width="215" height="30" as="geometry" />
        </mxCell>
        <mxCell id="5Yya15sDYefnaOWw6tK0-106" value="&lt;font size=&quot;1&quot; style=&quot;&quot;&gt;&lt;b style=&quot;font-size: 19px;&quot;&gt;Loteria&lt;/b&gt;&lt;/font&gt;" style="text;html=1;strokeColor=none;fillColor=none;align=center;verticalAlign=middle;whiteSpace=wrap;rounded=0;" parent="1" vertex="1">
          <mxGeometry x="424" y="-582" width="215" height="30" as="geometry" />
        </mxCell>
        <mxCell id="5Yya15sDYefnaOWw6tK0-109" value="" style="endArrow=none;html=1;rounded=0;entryX=0;entryY=0.5;entryDx=0;entryDy=0;exitX=0.5;exitY=0.5;exitDx=0;exitDy=0;exitPerimeter=0;" parent="1" source="Qj-F9OpdnE91LyuQE8zk-1" target="5Yya15sDYefnaOWw6tK0-11" edge="1">
          <mxGeometry width="50" height="50" relative="1" as="geometry">
            <mxPoint x="190" y="-410" as="sourcePoint" />
            <mxPoint x="240" y="-460" as="targetPoint" />
          </mxGeometry>
        </mxCell>
        <mxCell id="5Yya15sDYefnaOWw6tK0-110" value="" style="endArrow=none;html=1;rounded=0;exitX=0.5;exitY=0.5;exitDx=0;exitDy=0;exitPerimeter=0;" parent="1" source="5Yya15sDYefnaOWw6tK0-1" target="5Yya15sDYefnaOWw6tK0-29" edge="1">
          <mxGeometry width="50" height="50" relative="1" as="geometry">
            <mxPoint x="120" y="-720" as="sourcePoint" />
            <mxPoint x="385" y="-795" as="targetPoint" />
          </mxGeometry>
        </mxCell>
        <mxCell id="5Yya15sDYefnaOWw6tK0-113" value="" style="endArrow=none;html=1;rounded=0;exitX=0.5;exitY=0.5;exitDx=0;exitDy=0;exitPerimeter=0;entryX=0;entryY=0.5;entryDx=0;entryDy=0;" parent="1" source="Qj-F9OpdnE91LyuQE8zk-7" target="5Yya15sDYefnaOWw6tK0-41" edge="1">
          <mxGeometry width="50" height="50" relative="1" as="geometry">
            <mxPoint x="80" y="-165" as="sourcePoint" />
            <mxPoint x="280" y="-280" as="targetPoint" />
          </mxGeometry>
        </mxCell>
        <mxCell id="Qj-F9OpdnE91LyuQE8zk-1" value="Pracownik" style="shape=umlActor;verticalLabelPosition=bottom;verticalAlign=top;html=1;outlineConnect=0;" vertex="1" parent="1">
          <mxGeometry x="40" y="-900" width="60" height="110" as="geometry" />
        </mxCell>
        <mxCell id="Qj-F9OpdnE91LyuQE8zk-3" value="Administrator" style="shape=umlActor;verticalLabelPosition=bottom;verticalAlign=top;html=1;outlineConnect=0;" vertex="1" parent="1">
          <mxGeometry x="40" y="-760" width="60" height="110" as="geometry" />
        </mxCell>
        <mxCell id="Qj-F9OpdnE91LyuQE8zk-6" value="" style="endArrow=none;html=1;rounded=0;exitX=0.5;exitY=0.5;exitDx=0;exitDy=0;exitPerimeter=0;" edge="1" parent="1" source="Qj-F9OpdnE91LyuQE8zk-3" target="5Yya15sDYefnaOWw6tK0-11">
          <mxGeometry width="50" height="50" relative="1" as="geometry">
            <mxPoint x="160" y="-680" as="sourcePoint" />
            <mxPoint x="210" y="-730" as="targetPoint" />
          </mxGeometry>
        </mxCell>
        <mxCell id="Qj-F9OpdnE91LyuQE8zk-7" value="Administrator" style="shape=umlActor;verticalLabelPosition=bottom;verticalAlign=top;html=1;outlineConnect=0;" vertex="1" parent="1">
          <mxGeometry x="53" y="-235.5" width="60" height="110" as="geometry" />
        </mxCell>
        <mxCell id="Qj-F9OpdnE91LyuQE8zk-8" value="Pracownik" style="shape=umlActor;verticalLabelPosition=bottom;verticalAlign=top;html=1;outlineConnect=0;" vertex="1" parent="1">
          <mxGeometry x="58" y="-532" width="60" height="110" as="geometry" />
        </mxCell>
        <mxCell id="Qj-F9OpdnE91LyuQE8zk-9" value="" style="endArrow=none;html=1;rounded=0;exitX=0.5;exitY=0.5;exitDx=0;exitDy=0;exitPerimeter=0;entryX=0;entryY=0.5;entryDx=0;entryDy=0;" edge="1" parent="1" source="Qj-F9OpdnE91LyuQE8zk-8" target="5Yya15sDYefnaOWw6tK0-92">
          <mxGeometry width="50" height="50" relative="1" as="geometry">
            <mxPoint x="180" y="-450" as="sourcePoint" />
            <mxPoint x="230" y="-500" as="targetPoint" />
          </mxGeometry>
        </mxCell>
        <mxCell id="Qj-F9OpdnE91LyuQE8zk-10" value="Administrator" style="shape=umlActor;verticalLabelPosition=bottom;verticalAlign=top;html=1;outlineConnect=0;" vertex="1" parent="1">
          <mxGeometry x="53" y="348" width="60" height="110" as="geometry" />
        </mxCell>
        <mxCell id="Qj-F9OpdnE91LyuQE8zk-11" value="" style="endArrow=none;html=1;rounded=0;exitX=0.5;exitY=0.5;exitDx=0;exitDy=0;exitPerimeter=0;entryX=0;entryY=0.5;entryDx=0;entryDy=0;" edge="1" parent="1" source="Qj-F9OpdnE91LyuQE8zk-10" target="5Yya15sDYefnaOWw6tK0-66">
          <mxGeometry width="50" height="50" relative="1" as="geometry">
            <mxPoint x="203" y="438" as="sourcePoint" />
            <mxPoint x="253" y="388" as="targetPoint" />
          </mxGeometry>
        </mxCell>
      </root>
    </mxGraphModel>
  </diagram>
</mxfile>
